PathFileType	3	(X/Y/Z)	D:\Vicon Setup\UG\Test1\New Session\NewSession10.trc
DataRate	CameraRate	NumFrames	NumMarkers	Units	OrigDataRate	OrigDataStartFrame	OrigNumFrames
100.0	100.0	12	27	mm	100.0	658	353	
Frame#	Time	Sternum			LShoulder			RShoulder			LASIS			RASIS			RPSIS			LPSIS			RKneeLateral			RKneeMedial			RFibulaHead			RMidShank			RAnkleLateral			RAnkleMedial			RHeel			RMT5			RMT2			RToe			LKneeLateral			LKneeMedial			LFibulaHead			LMidShank			LAnkleLateral			LAnkleMedial			LHeel			LMT5			LMT2			LToe			
		X1	Y1	Z1	X2	Y2	Z2	X3	Y3	Z3	X4	Y4	Z4	X5	Y5	Z5	X6	Y6	Z6	X7	Y7	Z7	X8	Y8	Z8	X9	Y9	Z9	X10	Y10	Z10	X11	Y11	Z11	X12	Y12	Z12	X13	Y13	Z13	X14	Y14	Z14	X15	Y15	Z15	X16	Y16	Z16	X17	Y17	Z17	X18	Y18	Z18	X19	Y19	Z19	X20	Y20	Z20	X21	Y21	Z21	X22	Y22	Z22	X23	Y23	Z23	X24	Y24	Z24	X25	Y25	Z25	X26	Y26	Z26	X27	Y27	Z27	
658	6.57	-229.72809	1377.1267	-151.95735	-29.750313	1444.256	-220.6497	-395.7908	1418.9922	-261.23669	-95.600891	999.55328	-189.28458	-349.20178	1014.0145	-220.93771	-263.46365	1023.0604	-384.71701	-133.37529	1024.0466	-373.14047	-403.81073	557.05713	-130.98586	-282.33908	542.03857	-77.762589	-407.33609	479.95868	-140.32031	-319.48688	318.94763	-143.70479	-350.41473	140.0349	-261.35867	-289.1156	156.98537	-189.40469	-274.5524	131.84636	-312.95419	-420.79486	40.61235	-151.06313	-359.88138	75.623398	-121.42651	-363.39301	51.39077	-73.994797	-89.084892	517.32874	-271.16245	-220.11531	507.83063	-257.76355	-89.371643	456.16422	-293.6843	-176.89227	302.86798	-282.3313	-135.2578	103.30572	-368.44955	-215.9984	124.08855	-328.19818	-195.23914	75.215393	-442.29605	-93.627869	41.376034	-242.54253	-156.39555	59.972988	-222.22391	-156.4689	40.741024	-161.35077
659	6.58	-230.18826	1375.9628	-138.16441	-30.177872	1443.345	-206.84573	-396.16815	1417.64	-247.67273	-95.447891	998.39691	-176.30334	-349.26923	1013.1697	-207.66187	-264.29889	1022.4998	-371.535	-134.2572	1023.5303	-360.25436	-403.03812	556.52826	-115.16982	-281.55042	542.61426	-61.933399	-406.59204	478.17889	-121.55656	-319.84442	316.30746	-115.64004	-352.61121	130.25366	-221.31264	-290.94235	151.69028	-150.38593	-276.95819	118.01266	-272.3562	-423.09964	38.940266	-104.4225	-361.90512	75.510445	-77.372063	-365.46231	54.460621	-28.498138	-89.661995	517.1767	-265.82932	-220.94106	507.54385	-253.40593	-89.994423	456.33859	-289.22281	-177.46581	302.85684	-279.81262	-135.42792	104.11282	-367.85342	-216.34996	124.47163	-327.48428	-195.07057	76.293495	-441.93109	-93.68734	41.379284	-242.45337	-156.48273	59.736736	-222.032	-156.53508	40.279514	-161.39685
660	6.59	-230.66304	1374.4673	-124.30652	-30.636757	1442.1931	-192.97472	-396.6586	1416.0267	-233.84717	-95.488235	996.97229	-163.18266	-349.50906	1011.9412	-194.34331	-265.12421	1021.5881	-358.29236	-135.15161	1022.7506	-347.26111	-402.04343	555.2749	-100.29498	-280.69385	542.33502	-46.713142	-405.6929	475.89343	-103.67875	-320.29227	313.65381	-87.853249	-355.09497	121.15719	-180.69446	-292.97964	146.9334	-111.31927	-279.76376	104.75665	-230.89439	-425.64783	38.685753	-57.616009	-364.08496	76.526527	-33.373363	-367.62332	58.846237	16.751223	-90.216133	516.87909	-260.36523	-221.7419	507.20377	-248.94165	-90.572731	456.37207	-284.62299	-178.03928	302.74432	-277.26517	-135.58923	104.88492	-367.25876	-216.66545	124.80646	-326.77167	-194.91656	77.301514	-441.57837	-93.73764	41.385384	-242.36482	-156.59198	59.489643	-221.81715	-156.60352	39.864941	-161.37036
661	6.6	-231.1729	1372.66	-110.38473	-31.140787	1440.8154	-179.03754	-397.25589	1414.172	-219.78085	-95.746223	995.2641	-149.9561	-349.93094	1010.3383	-180.92912	-265.94922	1020.3553	-344.95828	-136.06064	1021.7224	-334.14438	-400.82834	553.29901	-86.364044	-279.71594	541.18085	-32.182705	-404.61734	473.07172	-86.711174	-320.81354	311.11066	-60.37006	-357.77307	112.98215	-139.63908	-295.17627	142.91637	-72.291595	-282.8591	92.338493	-188.73312	-428.4472	40.082623	-10.901851	-366.43671	78.880157	10.36818	-369.93283	64.747658	61.527927	-90.754875	516.45746	-254.77	-222.48502	506.8063	-244.30559	-91.120499	456.2836	-279.85959	-178.6152	302.55008	-274.66266	-135.74007	105.64867	-366.64948	-216.93747	125.09474	-326.00946	-194.79539	78.273392	-441.21817	-93.776299	41.400982	-242.28049	-156.713	59.234413	-221.58792	-156.67702	39.506794	-161.24007
662	6.61	-231.72768	1370.5648	-96.394768	-31.715502	1439.2087	-165.0697	-397.94513	1412.0897	-205.50131	-96.203041	993.26733	-136.66586	-350.54776	1008.3703	-167.36201	-266.80942	1018.8282	-331.50534	-137.00697	1020.4547	-320.89685	-399.41663	550.62341	-73.337669	-278.54999	539.17371	-18.41913	-403.35736	469.71295	-70.58564	-321.37704	308.8317	-33.205479	-360.53976	105.97526	-98.362564	-297.47379	139.84689	-33.439499	-286.09262	81.057068	-146.05376	-431.45911	43.252686	35.370281	-368.95334	82.706062	53.574478	-372.42664	72.269051	105.53137	-91.284531	515.93494	-249.03673	-223.14857	506.30713	-239.45305	-91.652405	456.09955	-274.92523	-179.17982	302.29294	-271.97223	-135.88704	106.42056	-366.02057	-217.16385	125.34203	-325.17984	-194.71288	79.248222	-440.83597	-93.801819	41.425095	-242.20158	-156.83012	58.97707	-221.36372	-156.76021	39.194683	-161.04599
663	6.62	-232.33008	1368.2078	-82.330978	-32.387375	1437.3633	-151.11829	-398.71167	1409.7911	-191.04193	-96.834358	991.00897	-123.32253	-351.37039	1006.0468	-153.58852	-267.76099	1017.0193	-317.91116	-138.03294	1018.9503	-307.51596	-397.80035	547.28003	-61.160797	-277.09778	536.36316	-5.4948077	-401.89624	465.88394	-55.16087	-321.93814	306.99048	-6.3801575	-363.2883	100.33883	-57.156166	-299.82449	137.92308	5.0216298	-289.31122	71.218208	-103.08791	-434.60657	48.194096	80.805878	-371.60049	88.055862	95.912239	-375.10236	81.43634	148.42169	-91.806122	515.33807	-243.16251	-223.74081	505.65594	-234.33278	-92.172935	455.8515	-269.84085	-179.69792	301.98639	-269.15915	-136.03522	107.20828	-365.37442	-217.34492	125.56538	-324.29071	-194.65727	80.260513	-440.42218	-93.814148	41.445969	-242.12965	-156.92517	58.726868	-221.15289	-156.85434	38.914005	-160.86108
664	6.63	-232.98358	1365.6144	-68.190559	-33.172703	1435.2756	-137.2108	-399.54935	1407.2887	-176.43991	-97.643425	988.54858	-109.88442	-352.39728	1003.3806	-139.57138	-268.8696	1014.9238	-304.14877	-139.19226	1017.2106	-294.00229	-395.93039	543.32104	-49.752857	-275.22324	532.80518	6.5465932	-400.21417	461.74451	-40.258675	-322.45142	305.74887	20.037277	-365.92242	96.185341	-16.372585	-302.19901	137.31366	42.810005	-292.3884	63.096634	-60.178909	-437.78207	54.7663	124.99526	-374.33273	94.893524	137.01387	-377.92316	92.182808	189.82365	-92.314873	514.69684	-237.15466	-224.28549	504.83578	-228.88927	-92.673622	455.57425	-264.64655	-180.12263	301.64377	-266.19427	-136.16975	108.02609	-364.71158	-217.48761	125.80293	-323.36002	-194.59952	81.338966	-439.97159	-93.812523	41.446121	-242.06509	-156.98099	58.486626	-220.95493	-156.9501	38.662075	-160.73479
665	6.64	-233.69806	1362.8057	-53.974243	-34.07394	1432.9548	-123.33897	-400.46118	1404.5952	-161.73328	-98.632942	985.95038	-96.293472	-353.6066	1000.3895	-125.29989	-270.19513	1012.5266	-290.17651	-140.53696	1015.2386	-280.3602	-393.77722	538.85431	-38.961586	-272.80136	528.56519	17.709152	-398.33087	457.53967	-25.686623	-322.88135	305.20718	45.884018	-368.3804	93.541733	23.573708	-304.5676	138.11705	79.598442	-295.23267	56.883148	-17.81604	-440.84183	62.691837	167.52727	-377.08603	103.07235	176.50023	-380.80673	104.30276	229.34758	-92.7976	514.04352	-231.02496	-224.78691	503.87854	-223.08327	-93.139908	455.30444	-259.3775	-180.41492	301.28366	-263.06134	-136.25671	108.89673	-364.02576	-217.59349	126.10504	-322.40524	-194.50127	82.511444	-439.48163	-93.790848	41.411903	-242.00516	-156.97856	58.253525	-220.75916	-157.02762	38.443699	-160.67299
666	6.65	-234.49069	1359.8003	-39.684689	-35.084408	1430.4227	-109.46519	-401.45755	1401.7266	-146.95616	-99.77108	983.25885	-82.527733	-354.96277	997.1073	-110.78324	-271.77676	1009.8188	-275.96286	-142.10448	1013.0374	-266.59686	-391.41547	534.07214	-28.521746	-269.81784	523.77313	28.093109	-396.3421	453.547	-11.245201	-323.20959	305.35944	70.908028	-370.63251	92.350243	62.216179	-306.86484	140.29553	115.02943	-297.77615	52.618427	23.383791	-443.58963	71.577591	208.01413	-379.73038	112.29086	214.01277	-383.57455	117.3961	266.65152	-93.232384	513.4071	-224.76941	-225.22627	502.8519	-216.90364	-93.559685	455.07556	-254.03088	-180.56183	300.92923	-259.75409	-136.25882	109.84389	-363.30225	-217.63965	126.51339	-321.42645	-194.32823	83.813133	-438.94672	-93.739044	41.337997	-241.94553	-156.89825	58.024967	-220.54256	-157.07103	38.259205	-160.66142
667	6.66	-235.38274	1356.6273	-25.323669	-36.201115	1427.7076	-95.548782	-402.55255	1398.708	-132.13559	-100.99457	980.49896	-68.616524	-356.42993	993.59021	-96.036003	-273.62256	1006.8182	-261.52658	-143.9079	1010.6107	-252.72089	-389.04526	529.23798	-18.052515	-266.44812	518.68915	37.967739	-394.40891	449.98441	3.2608552	-323.44473	306.07611	94.860474	-372.64008	92.436562	99.073311	-308.97772	143.59958	148.69849	-299.97174	50.139339	62.725925	-445.77286	80.93087	246.13522	-382.03287	122.06458	249.24126	-385.91473	130.84721	301.48492	-93.599182	512.80597	-218.33855	-225.59618	501.82898	-210.36243	-93.928055	454.90939	-248.54091	-180.58368	300.60611	-256.25995	-136.15262	110.89478	-362.5141	-217.59476	127.05204	-320.39822	-194.06274	85.293968	-438.3512	-93.650604	41.226536	-241.88141	-156.73553	57.795219	-220.28351	-157.07768	38.101074	-160.68817
668	6.67	-236.39497	1353.3379	-10.888947	-37.433662	1424.8392	-81.566986	-403.76074	1395.5764	-117.29143	-102.22186	977.68311	-54.62841	-357.97229	989.91058	-81.085144	-275.70908	1003.5739	-246.93077	-145.93115	1007.9726	-238.73801	-386.93243	524.6286	-7.0913301	-263.04959	513.69861	47.772816	-392.70679	446.91873	18.000065	-323.62888	307.11465	117.60424	-374.32101	93.470886	133.68575	-310.77338	147.54092	180.13959	-301.79825	49.060902	99.502945	-447.11365	90.17086	281.65479	-383.68835	131.75694	281.92468	-387.43655	143.89429	333.66107	-93.890686	512.23907	-211.62294	-225.91953	500.85812	-203.46609	-94.246361	454.80722	-242.77919	-180.52336	300.33902	-252.54002	-135.93864	112.08975	-361.61874	-217.45016	127.73426	-319.27338	-193.70815	87.020805	-437.6626	-93.526802	41.087273	-241.80571	-156.51007	57.551968	-219.97322	-157.05464	37.956039	-160.74159
669	6.68	-237.54597	1350.0092	3.6272116	-38.790043	1421.8646	-67.490845	-405.0928	1392.3807	-102.43669	-103.37391	974.81891	-40.650257	-359.54327	986.146	-65.987923	-277.98743	1000.1608	-232.23975	-148.13147	1005.1569	-224.6452	-385.32364	520.46875	4.8389897	-260.04221	509.23587	58.044273	-391.37143	444.24973	33.100628	-323.81268	308.14743	139.13194	-375.5509	94.946579	165.62605	-312.12366	151.46597	208.90762	-303.23199	48.801342	133.07797	-447.36212	98.657127	314.37964	-384.4024	140.66373	311.82358	-387.79257	155.76413	362.98511	-94.112305	511.6846	-204.47055	-226.22231	499.94226	-196.16319	-94.517105	454.74579	-236.58051	-180.424	300.14258	-248.52281	-135.63667	113.47935	-360.56259	-217.22258	128.57004	-317.99103	-193.28378	89.068138	-436.83234	-93.374084	40.936588	-241.70831	-156.24918	57.283775	-219.6049	-157.01451	37.809303	-160.80574
